<svg xmlns="http://www.w3.org/2000/svg" version="1.1" xmlns:xlink="http://www.w3.org/1999/xlink" xmlns:svgjs="http://svgjs.com/svgjs" width="100%" height="100%" viewBox="0 0 1000 600"><rect width="1000" height="600" x="0" y="0" fill="#ffffff"/><g><rect width="333.3333333333333" height="333.3333333333333" rx="13.333333333333334" ry="13.333333333333334" y="182.7602726116205" fill="#209cee" transform="matrix(0.7786318246710034,0,0,0.7786318246710034,0,27.925105608638134)" x="160.53800964355466"/><path d="M247.35291847733254 376.31373621174146L245.41221772191966 412.5940586670986Q245.41221772191966 424.0495839594662 223.09415903467178 424.0495839594662L223.09415903467178 424.0495839594662Q218.24240714613964 424.0495839594662 217.35291929990873 419.09001536229994Q216.49038563083636 414.15740094229227 216.49038563083636 405.23556830282484L216.49038563083636 405.23556830282484Q216.49038563083636 386.3945984690249 224.06450941237821 358.65875017291614L224.06450941237821 358.65875017291614Q236.6790643225618 312.8366490034458 251.04564074804867 304.69648750157523L251.04564074804867 304.69648750157523Q252.98634150346155 303.5374578837592 255.30440073909355 303.5374578837592Q257.62245997472564 303.5374578837592 257.62245997472564 311.11158166530106Q257.62245997472564 318.65875126968444 256.86774301428727 324.4808535359231L256.86774301428727 324.4808535359231Q255.30440073909355 336.1250580684002 251.3151825196338 354.5617152448224Q247.35291847733254 372.99837242124454 247.35291847733254 376.31373621174146L247.35291847733254 376.31373621174146ZM258.592810352432 360.3838175110609L258.592810352432 360.3838175110609Q258.592810352432 357.8770790353193 261.42299895407575 357.09540789772245Q264.226233378561 356.3137367601256 268.5119475467644 355.6398823311629Q272.77070753780936 354.96602790220004 277.81113866645103 353.5913648671159Q282.8515697950928 352.2436560091903 287.1372839632961 348.5509337384742L287.1372839632961 348.5509337384742Q297.02946698047003 340.00645957922586 297.02946698047003 320.0334143047686L297.02946698047003 320.0334143047686Q297.02946698047003 307.2301801544754 288.40413028974626 300.4377275105304Q279.7518394218639 293.6452748665854 263.55237894959816 293.6452748665854Q247.35291847733254 293.6452748665854 233.17502129195523 300.4377275105304L233.17502129195523 300.4377275105304Q227.94591092320394 302.944465986272 223.7680134636346 305.0738459817944Q219.59011600406524 307.2301801544754 216.11302715061717 307.2301801544754Q212.60898412001063 307.2301801544754 212.60898412001063 305.0738459817944L212.60898412001063 305.0738459817944Q212.60898412001063 301.785436368456 219.0240782837365 294.2113125869141L219.0240782837365 294.2113125869141Q225.4122182703038 287.2301807028595 239.29361950693746 281.2193991965114Q253.1750207435711 275.2086176901632 268.5119475467644 275.2086176901632L268.5119475467644 275.2086176901632Q297.4068254606892 274.9929842728951 313.5254234014793 288.7935229780532L313.5254234014793 288.7935229780532Q327.4876871695885 300.81508599074954 327.4876871695885 319.9255975961345Q327.4876871695885 339.0361092015195 313.71410264158897 354.0765400559692Q299.9405181135893 369.1169709104188 279.2666642330107 369.1169709104188Q258.592810352432 369.1169709104188 258.592810352432 360.3838175110609ZM438.88930136571844 375.3433858340351L438.88930136571844 375.3433858340351Q441.8003524988376 375.3433858340351 441.8003524988376 381.94715923787044L441.8003524988376 381.94715923787044Q441.8003524988376 395.7207437658701 428.9971183485445 408.6317946247973Q416.19388419825134 421.515891306566 397.7572270218292 421.7315247238341L397.7572270218292 421.7315247238341Q384.7383594542679 421.7315247238341 367.6763653129299 411.43502904928255L367.6763653129299 411.43502904928255Q355.4391688829654 424.4269424396854 337.1911909466528 424.4269424396854L337.1911909466528 424.4269424396854Q325.16962793395646 424.4269424396854 319.5362049078275 418.4161609333372Q313.9027818816985 412.40537942698904 313.9027818816985 402.5131964098151Q313.9027818816985 392.6210133926412 321.1804097144967 387.66144479547506Q328.4580375472949 382.7018761983088 339.724883599553 382.7018761983088L339.724883599553 382.7018761983088Q345.73566510590115 382.7018761983088 350.99172965181094 383.2948680957961L350.99172965181094 383.2948680957961Q350.99172965181094 359.62910055062264 356.22084002056226 337.0954084461066L356.22084002056226 337.0954084461066Q349.80574585683644 333.80699883276816 345.25048991704796 329.73691808183287Q340.69523397725936 325.6668373308976 340.69523397725936 323.32182391810704L340.69523397725936 323.32182391810704Q340.69523397725936 317.1223631716492 343.4176058702691 317.1223631716492L343.4176058702691 317.1223631716492Q347.29900738109484 317.1223631716492 351.47690484066413 319.35955987580576Q355.62784812307507 321.5698024028037 360.4796000116072 322.7557861977782L360.4796000116072 322.7557861977782Q372.528117201462 288.01185184045636 393.47151285362577 277.9040354060144L393.47151285362577 277.9040354060144Q400.8569573950581 274.42694655256633 408.99711889692867 274.42694655256633L408.99711889692867 274.42694655256633Q439.6709725033153 274.42694655256633 439.6709725033153 300.2220940932623L439.6709725033153 300.2220940932623Q439.6709725033153 314.9929831761268 428.61975986832533 325.6668373308976L428.61975986832533 325.6668373308976Q413.2828330651321 340.41077223660363 382.04294173841674 341.1924433742005L382.04294173841674 341.1924433742005Q379.88660756573574 357.47276637794164 379.88660756573574 379.79082506518955L379.88660756573574 379.79082506518955Q379.88660756573574 385.235568851209 378.5388987078102 392.028021495154L378.5388987078102 392.028021495154Q385.3313513517552 395.53206452576046 391.746445515481 398.44311565887983Q398.13458550204837 401.3541667919991 407.46073079889345 401.3541667919991L407.46073079889345 401.3541667919991Q412.3124826874256 401.3541667919991 417.0564178673237 397.25713186390533Q421.8273072243803 393.1870511129699 425.97825050679114 388.3352992244378Q430.15614796636055 383.48354733590566 433.47151175685747 379.41346658497037Q436.7599213701959 375.3433858340351 438.88930136571844 375.3433858340351ZM408.6197604167095 293.4296414493173L408.6197604167095 293.4296414493173Q392.31248323580974 293.4296414493173 384.953992871536 324.4808535359231L384.953992871536 324.4808535359231Q398.9162566396452 323.32182391810704 408.5119437080755 316.63718798279604Q418.1345849536642 309.92559787032656 418.1345849536642 303.13314522638154L418.1345849536642 303.13314522638154Q418.1345849536642 293.4296414493173 408.6197604167095 293.4296414493173ZM332.74375171549843 403.8609052677407L332.74375171549843 403.8609052677407Q332.93243095560797 409.30564905376013 340.3178754970403 409.30564905376013Q347.676365861314 409.30564905376013 349.6170666167269 400.7611748945118L349.6170666167269 400.7611748945118Q344.19927700786593 398.0388030015022 340.69523397725936 398.0388030015022L340.69523397725936 398.0388030015022Q332.93243095560797 398.0388030015022 332.74375171549843 403.8609052677407Z " fill="#ffffff" transform="matrix(0.7786318246710034,0,0,0.7786318246710034,0,27.925105608638134)"/><path d="M603.2766772867342 350.88325325136293L601.8203666790369 378.1081710008151Q601.8203666790369 386.7044488934728 585.072794690518 386.7044488934728L585.072794690518 386.7044488934728Q581.4320181712748 386.7044488934728 580.7645424760802 382.9827662293575Q580.1172933171036 379.2813101014601 580.1172933171036 372.58632661329625L580.1172933171036 372.58632661329625Q580.1172933171036 358.4479777969017 585.8009499943666 337.6348720285612L585.8009499943666 337.6348720285612Q595.2669689443991 303.2497604579306 606.0477127486026 297.1413465200892L606.0477127486026 297.1413465200892Q607.5040233562999 296.27160546271443 609.2435054710494 296.27160546271443Q610.982987585799 296.27160546271443 610.982987585799 301.9552621399775Q610.982987585799 307.6186922810225 610.4166445716945 311.9876241041144L610.4166445716945 311.9876241041144Q609.2435054710494 320.72548775029816 606.2499781107828 334.5604385234225Q603.2766772867342 348.3953892965467 603.2766772867342 350.88325325136293L603.2766772867342 350.88325325136293ZM611.7111428896477 338.92937034651436L611.7111428896477 338.92937034651436Q611.7111428896477 337.0483024782386 613.8349291925396 336.46173292791616Q615.9384889592135 335.8751633775936 619.1545082178783 335.3694999721432Q622.3503009403252 334.8638365666927 626.1326632130945 333.8322832195738Q629.9150254858638 332.82095640867294 633.1310447445287 330.0499209468045L633.1310447445287 330.0499209468045Q640.5541835365412 323.6381089656927 640.5541835365412 308.6502456281414L640.5541835365412 308.6502456281414Q640.5541835365412 299.0426409245829 634.0816919467755 293.94555379764233Q627.5889738207917 288.8484666707019 615.4328255537629 288.8484666707019Q603.2766772867342 288.8484666707019 592.6375192360567 293.94555379764233L592.6375192360567 293.94555379764233Q588.7135712097612 295.8266216659181 585.5784580959685 297.42451802714146Q582.4433449821757 299.0426409245829 579.8341218100513 299.0426409245829Q577.204672101709 299.0426409245829 577.204672101709 297.42451802714146L577.204672101709 297.42451802714146Q577.204672101709 294.95688060854326 582.0185877215973 289.2732239312802L582.0185877215973 289.2732239312802Q586.8122768052675 284.03455105081355 597.2289429575468 279.52403347419556Q607.6456091098261 275.0135158975776 619.1545082178783 275.0135158975776L619.1545082178783 275.0135158975776Q640.8373550435936 274.85170360783343 652.9328237019682 285.20769015145856L652.9328237019682 285.20769015145856Q663.4101694629015 294.22872530469465 663.4101694629015 308.56933948326935Q663.4101694629015 322.90995366184404 653.0744094554944 334.1963608714981Q642.7386494480872 345.48276808115213 627.2248961688674 345.48276808115213Q611.7111428896477 345.48276808115213 611.7111428896477 338.92937034651436ZM701.1326595095051 373.8808249312493L701.1326595095051 373.8808249312493Q693.8511064710186 383.9334134316043 681.6140520591177 383.9334134316043L681.6140520591177 383.9334134316043Q671.7232758485069 383.9334134316043 665.8171272728457 379.7869735069106Q659.9312052334025 375.6405335822169 659.9312052334025 366.5992718927629L659.9312052334025 366.5992718927629Q659.9312052334025 362.81690961999357 661.0234381891754 359.6211168975467Q662.1156711449484 356.4050976388819 664.5833085635467 351.7529943087377L664.5833085635467 351.7529943087377L668.8106546331124 317.2465235207991Q673.3211722097304 313.74733275508197 681.0477090450132 313.74733275508197L681.0477090450132 313.74733275508197Q687.6011067796511 313.74733275508197 688.4708478370259 322.48519640126574L688.4708478370259 322.48519640126574Q688.7540193440781 325.09441957339004 688.7540193440781 328.67451648397923Q688.7540193440781 332.2343868583504 687.6011067796511 336.17856142086384L687.6011067796511 336.17856142086384Q681.7758643488619 356.2635118853557 681.917450102388 363.1203076632638L681.917450102388 363.1203076632638Q681.917450102388 368.35898054373047 688.0258640402294 368.35898054373047Q694.1545045142889 368.35898054373047 697.0671257296834 364.414805981217Q699.9797469450781 360.49085795492147 702.0024005668798 354.66561552413225L702.0024005668798 354.66561552413225Q705.8049893758672 338.50461308593594 709.0816882431861 328.0070407887846Q712.3583871105051 317.5296950278513 713.2281281678798 315.4868148698315L713.2281281678798 315.4868148698315Q714.6844387755772 311.9876241041144 718.7499725553987 311.8460383505883L718.7499725553987 311.8460383505883Q722.8357328714384 311.9876241041144 726.4765093906816 317.61060117272336Q730.1172859099248 323.2133517051144 730.1172859099248 326.26755867403506L730.1172859099248 326.26755867403506Q729.8341144028726 336.46173292791616 717.4554742374456 377.6834137402367L717.4554742374456 377.6834137402367Q726.921493187478 370.2400484120061 736.2256998477662 359.4795311440206L736.2256998477662 359.4795311440206Q739.4417191064312 355.67694233503323 741.626185017977 353.12839877156296Q743.8106509295229 350.5798552080927 745.1253757836942 350.5798552080927L745.1253757836942 350.5798552080927Q747.148029405496 350.5798552080927 747.148029405496 355.2521850744548L747.148029405496 355.2521850744548Q747.148029405496 364.414805981217 736.8931755429609 376.6518603931178Q726.6180951442077 388.88891480501866 711.7718175601825 395.72548404670874L711.7718175601825 395.72548404670874Q710.012108909215 401.55072647749796 707.9894552874132 406.80962589418266Q705.9465751293934 412.0482987746493 702.7305558707285 415.97224680094473L702.7305558707285 415.97224680094473Q695.7524008755123 424.4269389400763 681.4724663055916 424.4269389400763L681.4724663055916 424.4269389400763Q671.8648616020331 424.4269389400763 665.088971968997 418.8848680163393Q658.313082335961 413.36302362882043 658.313082335961 405.0499172432151L658.313082335961 405.0499172432151Q658.313082335961 400.3978139130709 661.4481954497538 397.6267784512024Q664.5833085635467 394.855742989334 670.0444733424115 393.03535472971237Q675.5056381212763 391.21496647009076 682.7871911597628 389.8395620072655Q690.0687441982493 388.4439310082223 698.3616240476366 386.42127738642046L698.3616240476366 386.42127738642046Q700.4045042056564 377.6834137402367 701.1326595095051 373.8808249312493ZM681.3308805520655 413.2012113390763L681.3308805520655 413.2012113390763Q688.1674497937555 413.2012113390763 693.7095207174925 401.26755497044564L693.7095207174925 401.26755497044564Q688.4708478370259 402.2788817813466 684.3850875209862 402.80477172301505Q680.3195537411646 403.31043512846554 677.40693252577 403.73519238904385L677.40693252577 403.73519238904385Q671.5816900949809 404.62515998263666 671.7232758485069 406.80962589418266L671.7232758485069 406.80962589418266Q671.7232758485069 409.56043481983306 674.9999747158258 411.46172922432675Q678.2766735831448 413.36302362882043 681.3308805520655 413.2012113390763ZM830.7443035945641 350.15509794751426L830.7443035945641 350.15509794751426Q832.9287695061101 350.15509794751426 832.9287695061101 355.1105993209287L832.9287695061101 355.1105993209287Q832.9287695061101 365.4463593283359 823.3211648025516 375.1348701767665Q813.7135600989931 384.8031544889791 799.8786093258688 384.96496677872324L799.8786093258688 384.96496677872324Q790.1091923325661 384.96496677872324 777.3057949065608 377.23842994344034L777.3057949065608 377.23842994344034Q768.1229474635805 386.987620400525 754.4295824439824 386.987620400525L754.4295824439824 386.987620400525Q745.4085472907465 386.987620400525 741.1812012211807 382.477102823907Q736.9538551516149 377.966585247289 736.9538551516149 370.54344645527647Q736.9538551516149 363.1203076632638 742.4150199304797 359.3986249991485Q747.8761847093446 355.67694233503323 756.3308768484761 355.67694233503323L756.3308768484761 355.67694233503323Q760.8413944250941 355.67694233503323 764.7855689876077 356.1219261318296L764.7855689876077 356.1219261318296Q764.7855689876077 338.36302733240984 768.7095170139031 321.4536430541468L768.7095170139031 321.4536430541468Q763.8956013940148 318.9860056355486 760.4773167731698 315.93179866662786Q757.0590321523247 312.8775916977072 757.0590321523247 311.1178830467396L757.0590321523247 311.1178830467396Q757.0590321523247 306.46577971659553 759.1019123103446 306.46577971659553L759.1019123103446 306.46577971659553Q762.0145335257391 306.46577971659553 765.149646639532 308.14458222269104Q768.2645332171068 309.8031581925685 771.90530973635 310.6931257861612L771.90530973635 310.6931257861612Q780.946571425804 284.6211206011361 796.662590067204 277.0361695193793L796.662590067204 277.0361695193793Q802.2046609909409 274.426946347255 808.3130749287823 274.426946347255L808.3130749287823 274.426946347255Q831.3308731448867 274.426946347255 831.3308731448867 293.7837415078982L831.3308731448867 293.7837415078982Q831.3308731448867 304.8678833553721 823.0379932954994 312.8775916977072L823.0379932954994 312.8775916977072Q811.5290941874472 323.94150700896296 788.0865387107643 324.5280765592855L788.0865387107643 324.5280765592855Q786.4684158133228 336.74490443496836 786.4684158133228 353.49247642348723L786.4684158133228 353.49247642348723Q786.4684158133228 357.5782367395269 785.457089002422 362.67532386646747L785.457089002422 362.67532386646747Q790.5541761293625 365.3047735748097 795.3680917492508 367.4892394863557Q800.1617808329211 369.6737053979016 807.1601623643553 369.6737053979016L807.1601623643553 369.6737053979016Q810.8009388835985 369.6737053979016 814.3608092579697 366.5992718927629Q817.9409061685589 363.54506492384223 821.0557927461335 359.9042884045989Q824.1909058599264 356.2635118853557 826.6787698147426 353.20930491643503Q829.1464072333407 350.15509794751426 830.7443035945641 350.15509794751426ZM808.0299034217301 288.6866543809577L808.0299034217301 288.6866543809577Q795.7928490098292 288.6866543809577 790.2710046223102 311.9876241041144L790.2710046223102 311.9876241041144Q800.7483503832435 311.1178830467396 807.948997276858 306.10170206467114Q815.1698707066904 301.06529454638473 815.1698707066904 295.9682074194442L815.1698707066904 295.9682074194442Q815.1698707066904 288.6866543809577 808.0299034217301 288.6866543809577ZM751.0922039680095 371.55477326617734L751.0922039680095 371.55477326617734Q751.2337897215356 375.6405335822169 756.7758606452725 375.6405335822169Q762.2977050327914 375.6405335822169 763.7540156404887 369.22872160110524L763.7540156404887 369.22872160110524Q759.6884818606671 367.18584144308545 757.0590321523247 367.18584144308545L757.0590321523247 367.18584144308545Q751.2337897215356 367.18584144308545 751.0922039680095 371.55477326617734ZM860.0121015020362 368.64215205078267L860.0121015020362 368.64215205078267Q871.3794148565622 368.64215205078267 882.0185729072397 359.6211168975467L882.0185729072397 359.6211168975467Q885.9425209335352 356.2635118853557 888.4101583521334 353.4317968148332Q890.8980223069497 350.5798552080927 892.2127471611208 350.5798552080927L892.2127471611208 350.5798552080927Q894.2354007829226 350.5798552080927 894.2354007829226 354.66561552413225Q894.2354007829226 358.75137584017193 892.0509348713766 363.7675568222404Q889.8664689598307 368.7837378043089 884.7693818328902 373.5976534241971L884.7693818328902 373.5976534241971Q872.249155913937 385.38972403930154 850.4044967984777 385.38972403930154L850.4044967984777 385.38972403930154Q833.0703552596362 385.38972403930154 826.8203555682687 372.86949812034845L826.8203555682687 372.86949812034845Q824.6358896567227 368.50056629725657 824.6358896567227 360.34927220139537Q824.6358896567227 352.19797810553405 827.8316823791696 343.3792083144783Q831.0477016378344 334.5604385234225 836.3470541269552 328.16885307852874Q841.6666331522939 321.7570410974171 848.6650146837281 318.1769441868279Q855.6431696789443 314.61707381245674 863.5921984126254 314.61707381245674Q871.5210006100884 314.61707381245674 875.8292528245263 318.5410218387523Q880.117278502746 322.48519640126574 880.117278502746 328.73519609263326Q880.117278502746 335.0054223202188 876.9821653889533 339.01027649138643Q873.8470522751605 343.01513066255393 868.9117774379641 345.7052599795503Q863.9562760645498 348.3953892965467 857.9085417353623 350.51917559943865Q851.860807406175 352.62273536611247 846.0355649753858 355.2521850744548L846.0355649753858 355.2521850744548L846.0355649753858 358.89296159369803Q846.1771507289119 364.1316344741647 850.4044967984777 366.3161003857107Q854.6318428680435 368.50056629725657 860.0121015020362 368.64215205078267ZM857.544464083438 327.5822835282063L857.544464083438 327.5822835282063Q849.9797395378993 327.5822835282063 847.0671183225047 345.1995965740999L847.0671183225047 345.1995965740999Q850.1213252914255 343.15671641608003 852.8114546084217 341.5588200548567Q855.5015839254182 339.9609236936333 857.544464083438 338.50461308593594L857.544464083438 338.50461308593594Q861.9133959065299 335.28859382727114 862.0549816600561 331.2230600474495L862.0549816600561 331.2230600474495Q862.0549816600561 327.5822835282063 857.544464083438 327.5822835282063ZM976.3753643642935 350.15509794751426L976.3753643642935 350.15509794751426Q979.0048140726359 350.15509794751426 979.0048140726359 356.85008143567825L979.0048140726359 356.85008143567825Q979.0048140726359 360.49085795492147 975.9506071037152 365.6688512267341Q972.8761735985764 370.82661796232867 968.001578370034 375.1348701767665Q963.1269831414918 379.4228958549862 957.1601549571764 382.1939313168548Q951.1933267728613 384.96496677872324 945.5096700955982 384.96496677872324L945.5096700955982 384.96496677872324Q937.7831332603154 384.96496677872324 935.1739100881911 371.4131875126511L935.1739100881911 371.4131875126511Q931.3713212792035 377.6834137402367 925.2629073413622 381.6882679114043Q919.1544934035207 385.6931220825719 908.8794130047676 385.6931220825719Q898.6043326060145 385.6931220825719 892.354332914647 379.2813101014601Q886.0841066870613 372.86949812034845 886.2256924405875 363.68665067736833L886.2256924405875 363.68665067736833Q886.2256924405875 338.92937034651436 902.6900929220541 324.6696623128116L902.6900929220541 324.6696623128116Q909.6884744534883 318.7028341284963 915.7159822464577 316.8015397240026Q921.763716575645 314.90024531950894 928.458700063809 314.90024531950894Q935.1739100881911 314.90024531950894 939.3810296215387 317.2465235207991L939.3810296215387 317.2465235207991Q941.4239097795586 313.0191774512333 944.0533594879008 313.0191774512333L944.0533594879008 313.0191774512333Q949.1504466148414 313.0191774512333 953.7418703363314 317.4487888829792Q958.3130675216036 321.8986268509432 958.3130675216036 325.8225748772387L958.3130675216036 325.8225748772387Q956.2904138998018 330.63649049712694 952.3462393372882 337.3314739852909L952.3462393372882 337.3314739852909Q951.1933267728613 344.0264574734549 951.1933267728613 356.1219261318296Q951.1933267728613 368.21739479020437 954.2475337417819 368.21739479020437L954.2475337417819 368.21739479020437Q958.0298960145512 368.21739479020437 972.5930020915242 353.06771916290893L972.5930020915242 353.06771916290893Q975.2224517998665 350.15509794751426 976.3753643642935 350.15509794751426ZM907.6455942954685 358.89296159369803L907.6455942954685 358.89296159369803Q907.6455942954685 370.09846265848 915.9384741448558 370.09846265848L915.9384741448558 370.09846265848Q924.8179235445658 369.9568769049539 930.6431659753549 360.63244370844757L930.6431659753549 360.63244370844757Q932.6860461333748 357.4366509860008 934.0007709875459 352.76432111963857L934.0007709875459 352.76432111963857Q934.0007709875459 336.46173292791616 936.9133922029405 324.81124806633784L936.9133922029405 324.81124806633784Q925.1213215878361 327.1372997314098 916.3834579416522 336.17856142086384Q907.6455942954685 345.1995965740999 907.6455942954685 358.89296159369803ZM992.9813505992863 360.0458741581251L992.9813505992863 360.0458741581251L993.8510916566611 377.8249994937629Q993.8510916566611 381.32419025948 990.2103151374179 384.0749991851304Q986.5695386181746 386.8460346469989 980.319538926807 386.8460346469989L980.319538926807 386.8460346469989Q976.6787624075638 386.8460346469989 975.2831314085205 383.06367237422955Q973.9077269456953 379.2813101014601 973.9077269456953 371.9997570629737L973.9077269456953 371.9997570629737Q973.9077269456953 356.70849568215215 975.4247171620467 348.0313116446224Q976.9619339146161 339.3743541433107 981.4724514912341 330.49490474360084L981.4724514912341 330.49490474360084Q974.7774680030701 324.0830927624892 974.7774680030701 319.430989432345L974.7774680030701 319.430989432345Q974.7774680030701 309.6615724390423 985.2548137640034 309.6615724390423L985.2548137640034 309.6615724390423Q990.6552989342142 309.6615724390423 994.720832714036 315.3452291163054L994.720832714036 315.3452291163054Q997.6334539294304 319.2691771426008 998.9481787836016 324.5280765592855L998.9481787836016 324.5280765592855Q1000.9910589416214 325.2562318631342 1004.0452659105421 325.2562318631342L1004.0452659105421 325.2562318631342Q1008.2726119801079 325.2562318631342 1013.8146829038448 322.48519640126574L1013.8146829038448 322.48519640126574L1017.5970451766142 320.58390199677206Q1019.3365272913637 319.7141609393973 1020.6512521455348 319.7141609393973L1020.6512521455348 319.7141609393973Q1024.8785982151007 319.7141609393973 1029.1059442846663 332.0928011048243L1029.1059442846663 332.0928011048243Q1027.7912194304954 337.7764577820873 1026.254002677926 343.01513066255393Q1024.7370124615745 348.2538035430206 1022.6941323035547 355.67694233503323Q1020.6512521455348 363.1203076632638 1020.5703460006629 365.6688512267341Q1020.5096663920089 368.21739479020437 1022.1075627532322 368.21739479020437L1022.1075627532322 368.21739479020437Q1024.2920286647782 368.21739479020437 1027.4878213872248 365.4463593283359Q1030.7038406458896 362.67532386646747 1033.8996333683367 359.3986249991485Q1037.1156526270015 356.1219261318296 1039.8057819439978 353.35089066996113Q1042.4959112609945 350.5798552080927 1043.5072380718952 350.5798552080927L1043.5072380718952 350.5798552080927Q1045.550118229915 350.5798552080927 1045.550118229915 355.535356581507L1045.550118229915 355.535356581507Q1045.550118229915 365.587945081862 1036.7515749750773 375.33713553894665Q1027.9328051840212 385.10655253224934 1016.5654918294953 384.96496677872324L1016.5654918294953 384.96496677872324Q1009.8705083413313 384.96496677872324 1006.5331298653583 379.56448160851244Q1003.1755248531673 374.1842229745197 1003.0339390996412 366.4576861392368L1003.0339390996412 366.4576861392368Q1003.0339390996412 351.16642475841525 1009.8705083413313 337.473059738817L1009.8705083413313 337.473059738817Q1006.6747156188845 338.78778459298815 1002.6698614477169 338.78778459298815Q998.6650072765493 338.78778459298815 996.9052986255818 338.50461308593594L996.9052986255818 338.50461308593594Q995.6108003076287 344.0264574734549 994.2960754534575 349.6494345420639Q992.9813505992863 355.2521850744548 992.9813505992863 360.0458741581251ZM1057.64558688829 311.8460383505883L1057.64558688829 311.8460383505883Q1062.8842597687562 311.8460383505883 1067.5363630989004 321.8986268509432L1067.5363630989004 321.8986268509432Q1074.3931588768087 314.75865956598284 1084.5064269858176 314.75865956598284Q1094.6399216310447 314.75865956598284 1099.7370087579852 319.2084975339468Q1104.8340958849258 323.6381089656927 1104.8340958849258 331.7287234528999Q1104.8340958849258 339.81933794010706 1102.710309582034 348.1122177894945Q1100.6067498153598 356.4050976388819 1099.656102613113 359.985194549471Q1098.7054554108663 363.54506492384223 1098.7054554108663 365.8711165889142Q1098.7054554108663 368.21739479020437 1100.3033517720896 368.21739479020437L1100.3033517720896 368.21739479020437Q1102.4878176836355 368.21739479020437 1105.7038369423003 365.4463593283359Q1108.8996296647474 362.67532386646747 1112.1156489234122 359.3986249991485Q1115.3114416458588 356.1219261318296 1118.0015709628556 353.35089066996113Q1120.6917002798518 350.5798552080927 1121.7232536269707 350.5798552080927L1121.7232536269707 350.5798552080927Q1123.7661337849904 350.5798552080927 1123.7661337849904 355.535356581507L1123.7661337849904 355.535356581507Q1123.7661337849904 365.7295308353881 1113.7135452846355 375.19554978542055L1113.7135452846355 375.19554978542055Q1096.8243875425906 385.10655253224934 1092.1520576762287 385.10655253224934L1092.1520576762287 385.10655253224934Q1091.72730041565 385.10655253224934 1091.565488125906 384.96496677872324L1091.565488125906 384.96496677872324Q1079.9150032643274 384.96496677872324 1079.9150032643274 366.3161003857107L1079.9150032643274 366.3161003857107Q1079.9150032643274 358.3063920433756 1081.4522200168967 351.6114085552116Q1082.9894367694665 344.9164250670476 1083.7175920733148 341.8419915619089Q1084.4457473771636 338.78778459298815 1084.4457473771636 335.5919918705414L1084.4457473771636 335.5919918705414Q1084.4457473771636 330.35331899007474 1078.3980130479763 330.35331899007474Q1072.350278718789 330.35331899007474 1066.8891139399238 339.29344799843864Q1061.4279491610591 348.2538035430206 1059.5266547565657 357.8614082465791L1059.5266547565657 357.8614082465791L1059.5266547565657 358.89296159369803Q1059.5266547565657 363.8484629671125 1061.063871509135 369.08713584757913Q1062.6010882617043 374.3258087280458 1062.6010882617043 376.36868888606557L1062.6010882617043 376.36868888606557Q1062.6010882617043 381.32419025948 1050.2224480962773 386.1178793431502L1050.2224480962773 386.1178793431502Q1048.3211536917834 386.8460346469989 1046.8648430840863 386.8460346469989L1046.8648430840863 386.8460346469989Q1043.2240665648428 386.8460346469989 1041.848662102018 383.06367237422955Q1040.4530311029744 379.2813101014601 1040.4530311029744 371.271601759125L1040.4530311029744 371.271601759125Q1040.4530311029744 350.5798552080927 1042.0509274641977 341.4172343013305L1042.0509274641977 341.4172343013305Q1044.235393375744 327.7238692817324 1051.9619302110268 315.93179866662786L1051.9619302110268 315.93179866662786Q1054.591379919369 311.8460383505883 1057.64558688829 311.8460383505883Z " fill="#209cee" transform="matrix(0.7786318246710034,0,0,0.7786318246710034,0,27.925105608638134)"/></g></svg>